<mxfile host="drawio-plugin" modified="2023-01-29T01:49:49.966Z" agent="5.0 (Macintosh; Intel Mac OS X 10_15_7) AppleWebKit/537.36 (KHTML, like Gecko) Chrome/98.0.4758.102 Safari/537.36" etag="waedUj_janimElULQLfb" version="20.5.3" type="embed"><diagram id="23iRSUPoRavnBvh4doch" name="Page-1"><mxGraphModel dx="665" dy="596" grid="1" gridSize="10" guides="1" tooltips="1" connect="1" arrows="1" fold="1" page="1" pageScale="1" pageWidth="1200" pageHeight="1920" math="0" shadow="0"><root><mxCell id="0"/><mxCell id="1" parent="0"/><mxCell id="68" value="" style="edgeStyle=orthogonalEdgeStyle;rounded=0;orthogonalLoop=1;jettySize=auto;html=1;" parent="1" source="2" target="24" edge="1"><mxGeometry relative="1" as="geometry"/></mxCell><mxCell id="2" value="" style="strokeWidth=2;html=1;shape=mxgraph.flowchart.start_2;whiteSpace=wrap;" parent="1" vertex="1"><mxGeometry x="40" y="30" width="100" height="100" as="geometry"/></mxCell><mxCell id="35" value="" style="edgeStyle=orthogonalEdgeStyle;rounded=0;orthogonalLoop=1;jettySize=auto;html=1;" parent="1" source="24" target="25" edge="1"><mxGeometry relative="1" as="geometry"/></mxCell><mxCell id="24" value="Kick Off" style="rounded=1;whiteSpace=wrap;html=1;" parent="1" vertex="1"><mxGeometry x="30" y="180" width="120" height="60" as="geometry"/></mxCell><mxCell id="29" value="" style="edgeStyle=orthogonalEdgeStyle;rounded=0;orthogonalLoop=1;jettySize=auto;html=1;entryX=0;entryY=0.25;entryDx=0;entryDy=0;" parent="1" source="25" edge="1" target="100"><mxGeometry relative="1" as="geometry"><mxPoint x="600" y="800" as="targetPoint"/><Array as="points"><mxPoint x="620" y="330"/><mxPoint x="620" y="805"/></Array></mxGeometry></mxCell><mxCell id="77" value="" style="edgeStyle=orthogonalEdgeStyle;rounded=0;orthogonalLoop=1;jettySize=auto;html=1;" parent="1" source="25" target="74" edge="1"><mxGeometry relative="1" as="geometry"/></mxCell><mxCell id="25" value="Retained" style="rhombus;whiteSpace=wrap;html=1;" parent="1" vertex="1"><mxGeometry x="50" y="290" width="80" height="80" as="geometry"/></mxCell><mxCell id="66" value="" style="edgeStyle=orthogonalEdgeStyle;rounded=0;orthogonalLoop=1;jettySize=auto;html=1;exitX=1;exitY=0.5;exitDx=0;exitDy=0;" parent="1" source="43" target="46" edge="1"><mxGeometry relative="1" as="geometry"/></mxCell><mxCell id="82" value="" style="edgeStyle=orthogonalEdgeStyle;rounded=0;orthogonalLoop=1;jettySize=auto;html=1;entryX=0.5;entryY=0;entryDx=0;entryDy=0;entryPerimeter=0;" parent="1" source="43" target="85" edge="1"><mxGeometry relative="1" as="geometry"><mxPoint x="230" y="780" as="targetPoint"/></mxGeometry></mxCell><mxCell id="43" value="Penalty" style="rhombus;whiteSpace=wrap;html=1;" parent="1" vertex="1"><mxGeometry x="190" y="620" width="80" height="80" as="geometry"/></mxCell><mxCell id="67" value="" style="edgeStyle=orthogonalEdgeStyle;rounded=0;orthogonalLoop=1;jettySize=auto;html=1;" parent="1" source="46" target="48" edge="1"><mxGeometry relative="1" as="geometry"/></mxCell><mxCell id="94" value="" style="edgeStyle=orthogonalEdgeStyle;rounded=0;orthogonalLoop=1;jettySize=auto;html=1;entryX=0.5;entryY=0;entryDx=0;entryDy=0;" parent="1" source="46" target="93" edge="1"><mxGeometry relative="1" as="geometry"/></mxCell><mxCell id="46" value="Error(Scrum)" style="rhombus;whiteSpace=wrap;html=1;" parent="1" vertex="1"><mxGeometry x="350" y="620" width="80" height="80" as="geometry"/></mxCell><mxCell id="70" value="" style="edgeStyle=orthogonalEdgeStyle;rounded=0;orthogonalLoop=1;jettySize=auto;html=1;" parent="1" source="48" target="69" edge="1"><mxGeometry relative="1" as="geometry"/></mxCell><mxCell id="97" value="" style="edgeStyle=orthogonalEdgeStyle;rounded=0;orthogonalLoop=1;jettySize=auto;html=1;entryX=0.5;entryY=0;entryDx=0;entryDy=0;" parent="1" source="48" target="96" edge="1"><mxGeometry relative="1" as="geometry"/></mxCell><mxCell id="48" value="Touch" style="rhombus;whiteSpace=wrap;html=1;" parent="1" vertex="1"><mxGeometry x="510" y="620" width="80" height="80" as="geometry"/></mxCell><mxCell id="73" value="" style="edgeStyle=orthogonalEdgeStyle;rounded=0;orthogonalLoop=1;jettySize=auto;html=1;" parent="1" source="69" target="72" edge="1"><mxGeometry relative="1" as="geometry"/></mxCell><mxCell id="69" value="Turnover" style="rhombus;whiteSpace=wrap;html=1;" parent="1" vertex="1"><mxGeometry x="670" y="620" width="80" height="80" as="geometry"/></mxCell><mxCell id="103" value="" style="edgeStyle=orthogonalEdgeStyle;rounded=0;orthogonalLoop=1;jettySize=auto;html=1;" parent="1" source="72" target="102" edge="1"><mxGeometry relative="1" as="geometry"/></mxCell><mxCell id="72" value="Kick" style="rhombus;whiteSpace=wrap;html=1;" parent="1" vertex="1"><mxGeometry x="830" y="620" width="80" height="80" as="geometry"/></mxCell><mxCell id="101" style="edgeStyle=orthogonalEdgeStyle;rounded=0;orthogonalLoop=1;jettySize=auto;html=1;exitX=1;exitY=0.5;exitDx=0;exitDy=0;entryX=0;entryY=0.5;entryDx=0;entryDy=0;" parent="1" source="74" target="100" edge="1"><mxGeometry relative="1" as="geometry"><Array as="points"><mxPoint x="490" y="490"/><mxPoint x="490" y="820"/></Array></mxGeometry></mxCell><mxCell id="185" value="" style="edgeStyle=orthogonalEdgeStyle;rounded=0;orthogonalLoop=1;jettySize=auto;html=1;" edge="1" parent="1" source="74" target="184"><mxGeometry relative="1" as="geometry"/></mxCell><mxCell id="74" value="Own Possession" style="shape=process;whiteSpace=wrap;html=1;backgroundOutline=1;" parent="1" vertex="1"><mxGeometry x="30" y="460" width="120" height="60" as="geometry"/></mxCell><mxCell id="85" value="Penalty Kick" style="shape=process;whiteSpace=wrap;html=1;backgroundOutline=1;" parent="1" vertex="1"><mxGeometry x="170" y="790" width="120" height="60" as="geometry"/></mxCell><mxCell id="93" value="Scrum" style="shape=process;whiteSpace=wrap;html=1;backgroundOutline=1;" parent="1" vertex="1"><mxGeometry x="330" y="790" width="120" height="60" as="geometry"/></mxCell><mxCell id="96" value="LineOut" style="shape=process;whiteSpace=wrap;html=1;backgroundOutline=1;" parent="1" vertex="1"><mxGeometry x="490" y="920" width="120" height="60" as="geometry"/></mxCell><mxCell id="100" value="Opp Possessioon" style="shape=process;whiteSpace=wrap;html=1;backgroundOutline=1;" parent="1" vertex="1"><mxGeometry x="650" y="790" width="120" height="60" as="geometry"/></mxCell><mxCell id="104" style="edgeStyle=orthogonalEdgeStyle;rounded=0;orthogonalLoop=1;jettySize=auto;html=1;entryX=0.647;entryY=-0.009;entryDx=0;entryDy=0;entryPerimeter=0;" parent="1" source="102" target="96" edge="1"><mxGeometry relative="1" as="geometry"><Array as="points"><mxPoint x="870" y="890"/><mxPoint x="568" y="890"/></Array></mxGeometry></mxCell><mxCell id="106" value="" style="edgeStyle=orthogonalEdgeStyle;rounded=0;orthogonalLoop=1;jettySize=auto;html=1;" parent="1" source="102" target="105" edge="1"><mxGeometry relative="1" as="geometry"/></mxCell><mxCell id="102" value="Touch" style="rhombus;whiteSpace=wrap;html=1;" parent="1" vertex="1"><mxGeometry x="830" y="780" width="80" height="80" as="geometry"/></mxCell><mxCell id="107" style="edgeStyle=orthogonalEdgeStyle;rounded=0;orthogonalLoop=1;jettySize=auto;html=1;entryX=1;entryY=0.25;entryDx=0;entryDy=0;" parent="1" source="105" target="74" edge="1"><mxGeometry relative="1" as="geometry"><Array as="points"><mxPoint x="1030" y="940"/><mxPoint x="1120" y="940"/><mxPoint x="1120" y="475"/></Array></mxGeometry></mxCell><mxCell id="110" style="edgeStyle=orthogonalEdgeStyle;rounded=0;orthogonalLoop=1;jettySize=auto;html=1;exitX=1;exitY=0.5;exitDx=0;exitDy=0;entryX=0.75;entryY=0;entryDx=0;entryDy=0;" parent="1" source="105" target="100" edge="1"><mxGeometry relative="1" as="geometry"><Array as="points"><mxPoint x="1090" y="820"/><mxPoint x="1090" y="740"/><mxPoint x="730" y="740"/><mxPoint x="730" y="790"/></Array></mxGeometry></mxCell><mxCell id="105" value="Retained" style="rhombus;whiteSpace=wrap;html=1;" parent="1" vertex="1"><mxGeometry x="990" y="780" width="80" height="80" as="geometry"/></mxCell><mxCell id="114" value="" style="edgeStyle=orthogonalEdgeStyle;rounded=0;orthogonalLoop=1;jettySize=auto;html=1;entryX=0.5;entryY=0;entryDx=0;entryDy=0;" edge="1" parent="1" source="111" target="128"><mxGeometry relative="1" as="geometry"><mxPoint x="170" y="1220" as="targetPoint"/></mxGeometry></mxCell><mxCell id="111" value="" style="ellipse;whiteSpace=wrap;html=1;aspect=fixed;" vertex="1" parent="1"><mxGeometry x="130" y="1060" width="80" height="80" as="geometry"/></mxCell><mxCell id="112" value="Possession" style="text;html=1;strokeColor=none;fillColor=none;align=center;verticalAlign=middle;whiteSpace=wrap;rounded=0;" vertex="1" parent="1"><mxGeometry x="50" y="1085" width="60" height="30" as="geometry"/></mxCell><mxCell id="116" value="" style="edgeStyle=orthogonalEdgeStyle;rounded=0;orthogonalLoop=1;jettySize=auto;html=1;exitX=0.5;exitY=1;exitDx=0;exitDy=0;" edge="1" parent="1" source="128" target="115"><mxGeometry relative="1" as="geometry"><mxPoint x="170" y="1290" as="sourcePoint"/></mxGeometry></mxCell><mxCell id="135" value="" style="edgeStyle=orthogonalEdgeStyle;rounded=0;orthogonalLoop=1;jettySize=auto;html=1;" edge="1" parent="1" source="115" target="134"><mxGeometry relative="1" as="geometry"/></mxCell><mxCell id="136" style="edgeStyle=orthogonalEdgeStyle;rounded=0;orthogonalLoop=1;jettySize=auto;html=1;entryX=0.5;entryY=0;entryDx=0;entryDy=0;" edge="1" parent="1" source="115" target="131"><mxGeometry relative="1" as="geometry"/></mxCell><mxCell id="115" value="gainLine &amp;lt; 100" style="rhombus;whiteSpace=wrap;html=1;" vertex="1" parent="1"><mxGeometry x="130" y="1360" width="80" height="80" as="geometry"/></mxCell><mxCell id="128" value="Carry" style="shape=process;whiteSpace=wrap;html=1;backgroundOutline=1;" vertex="1" parent="1"><mxGeometry x="110" y="1230" width="120" height="60" as="geometry"/></mxCell><mxCell id="153" value="" style="edgeStyle=orthogonalEdgeStyle;rounded=0;orthogonalLoop=1;jettySize=auto;html=1;" edge="1" parent="1" source="131" target="152"><mxGeometry relative="1" as="geometry"/></mxCell><mxCell id="131" value="Ruck" style="shape=process;whiteSpace=wrap;html=1;backgroundOutline=1;" vertex="1" parent="1"><mxGeometry x="110" y="1500" width="120" height="60" as="geometry"/></mxCell><mxCell id="134" value="Try" style="shape=process;whiteSpace=wrap;html=1;backgroundOutline=1;" vertex="1" parent="1"><mxGeometry x="270" y="1370" width="120" height="60" as="geometry"/></mxCell><mxCell id="140" value="" style="edgeStyle=orthogonalEdgeStyle;rounded=0;orthogonalLoop=1;jettySize=auto;html=1;" edge="1" parent="1" source="137" target="139"><mxGeometry relative="1" as="geometry"/></mxCell><mxCell id="137" value="" style="ellipse;whiteSpace=wrap;html=1;aspect=fixed;" vertex="1" parent="1"><mxGeometry x="500" y="1060" width="80" height="80" as="geometry"/></mxCell><mxCell id="138" value="Carry" style="text;html=1;strokeColor=none;fillColor=none;align=center;verticalAlign=middle;whiteSpace=wrap;rounded=0;" vertex="1" parent="1"><mxGeometry x="420" y="1085" width="60" height="30" as="geometry"/></mxCell><mxCell id="143" value="" style="edgeStyle=orthogonalEdgeStyle;rounded=0;orthogonalLoop=1;jettySize=auto;html=1;" edge="1" parent="1" source="139" target="142"><mxGeometry relative="1" as="geometry"/></mxCell><mxCell id="139" value="gainLine + gainMeter" style="whiteSpace=wrap;html=1;" vertex="1" parent="1"><mxGeometry x="480" y="1230" width="120" height="60" as="geometry"/></mxCell><mxCell id="145" value="" style="edgeStyle=orthogonalEdgeStyle;rounded=0;orthogonalLoop=1;jettySize=auto;html=1;" edge="1" parent="1" source="142" target="144"><mxGeometry relative="1" as="geometry"/></mxCell><mxCell id="161" value="" style="edgeStyle=orthogonalEdgeStyle;rounded=0;orthogonalLoop=1;jettySize=auto;html=1;" edge="1" parent="1" source="142" target="160"><mxGeometry relative="1" as="geometry"/></mxCell><mxCell id="142" value="Pass" style="rhombus;whiteSpace=wrap;html=1;" vertex="1" parent="1"><mxGeometry x="500" y="1360" width="80" height="80" as="geometry"/></mxCell><mxCell id="151" value="" style="edgeStyle=orthogonalEdgeStyle;rounded=0;orthogonalLoop=1;jettySize=auto;html=1;" edge="1" parent="1" source="144" target="146"><mxGeometry relative="1" as="geometry"/></mxCell><mxCell id="144" value="gainLine - yAxisPassMeter" style="whiteSpace=wrap;html=1;" vertex="1" parent="1"><mxGeometry x="480" y="1530" width="120" height="60" as="geometry"/></mxCell><mxCell id="146" value="" style="ellipse;html=1;shape=endState;fillColor=#000000;strokeColor=#ff0000;" vertex="1" parent="1"><mxGeometry x="525" y="1650" width="30" height="30" as="geometry"/></mxCell><mxCell id="154" style="edgeStyle=orthogonalEdgeStyle;rounded=0;orthogonalLoop=1;jettySize=auto;html=1;entryX=0;entryY=0.5;entryDx=0;entryDy=0;" edge="1" parent="1" source="152" target="128"><mxGeometry relative="1" as="geometry"><Array as="points"><mxPoint x="170" y="1750"/><mxPoint x="70" y="1750"/><mxPoint x="70" y="1260"/></Array></mxGeometry></mxCell><mxCell id="158" value="" style="edgeStyle=orthogonalEdgeStyle;rounded=0;orthogonalLoop=1;jettySize=auto;html=1;entryX=0;entryY=0.5;entryDx=0;entryDy=0;" edge="1" parent="1" source="152" target="159"><mxGeometry relative="1" as="geometry"><mxPoint x="330" y="1670" as="targetPoint"/></mxGeometry></mxCell><mxCell id="152" value="RESULT.WON" style="rhombus;whiteSpace=wrap;html=1;" vertex="1" parent="1"><mxGeometry x="130" y="1630" width="80" height="80" as="geometry"/></mxCell><mxCell id="159" value="" style="ellipse;html=1;shape=endState;fillColor=#000000;strokeColor=#ff0000;" vertex="1" parent="1"><mxGeometry x="300" y="1655" width="30" height="30" as="geometry"/></mxCell><mxCell id="165" value="" style="edgeStyle=orthogonalEdgeStyle;rounded=0;orthogonalLoop=1;jettySize=auto;html=1;" edge="1" parent="1" source="160" target="164"><mxGeometry relative="1" as="geometry"/></mxCell><mxCell id="176" style="edgeStyle=orthogonalEdgeStyle;rounded=0;orthogonalLoop=1;jettySize=auto;html=1;entryX=0.5;entryY=0;entryDx=0;entryDy=0;" edge="1" parent="1" source="160" target="175"><mxGeometry relative="1" as="geometry"/></mxCell><mxCell id="160" value="Kick" style="rhombus;whiteSpace=wrap;html=1;" vertex="1" parent="1"><mxGeometry x="660" y="1360" width="80" height="80" as="geometry"/></mxCell><mxCell id="167" value="" style="edgeStyle=orthogonalEdgeStyle;rounded=0;orthogonalLoop=1;jettySize=auto;html=1;entryX=1;entryY=0.5;entryDx=0;entryDy=0;" edge="1" parent="1" source="164" target="139"><mxGeometry relative="1" as="geometry"><mxPoint x="1020" y="1400" as="targetPoint"/><Array as="points"><mxPoint x="940" y="1400"/><mxPoint x="940" y="1260"/></Array></mxGeometry></mxCell><mxCell id="178" style="edgeStyle=orthogonalEdgeStyle;rounded=0;orthogonalLoop=1;jettySize=auto;html=1;" edge="1" parent="1" source="164" target="177"><mxGeometry relative="1" as="geometry"/></mxCell><mxCell id="164" value="Tackled" style="rhombus;whiteSpace=wrap;html=1;" vertex="1" parent="1"><mxGeometry x="820" y="1360" width="80" height="80" as="geometry"/></mxCell><mxCell id="168" value="gainMeter = (0..5).random()" style="text;html=1;strokeColor=none;fillColor=none;align=center;verticalAlign=middle;whiteSpace=wrap;rounded=0;" vertex="1" parent="1"><mxGeometry x="370" y="1190" width="160" height="30" as="geometry"/></mxCell><mxCell id="174" value="gainMeter = (5..20).random()" style="text;html=1;strokeColor=none;fillColor=none;align=center;verticalAlign=middle;whiteSpace=wrap;rounded=0;" vertex="1" parent="1"><mxGeometry x="770" y="1190" width="160" height="30" as="geometry"/></mxCell><mxCell id="175" value="" style="ellipse;html=1;shape=endState;fillColor=#000000;strokeColor=#ff0000;" vertex="1" parent="1"><mxGeometry x="685" y="1530" width="30" height="30" as="geometry"/></mxCell><mxCell id="177" value="" style="ellipse;html=1;shape=endState;fillColor=#000000;strokeColor=#ff0000;" vertex="1" parent="1"><mxGeometry x="845" y="1530" width="30" height="30" as="geometry"/></mxCell><mxCell id="186" style="edgeStyle=orthogonalEdgeStyle;rounded=0;orthogonalLoop=1;jettySize=auto;html=1;" edge="1" parent="1" source="184" target="43"><mxGeometry relative="1" as="geometry"/></mxCell><mxCell id="192" style="edgeStyle=orthogonalEdgeStyle;rounded=0;orthogonalLoop=1;jettySize=auto;html=1;entryX=0;entryY=0.5;entryDx=0;entryDy=0;" edge="1" parent="1" source="184" target="24"><mxGeometry relative="1" as="geometry"><Array as="points"><mxPoint x="90" y="720"/><mxPoint x="10" y="720"/><mxPoint x="10" y="210"/></Array></mxGeometry></mxCell><mxCell id="184" value="Try" style="rhombus;whiteSpace=wrap;html=1;" vertex="1" parent="1"><mxGeometry x="50" y="620" width="80" height="80" as="geometry"/></mxCell><mxCell id="193" value="While(setNum &amp;lt; SET_NUM_LIMIT)" style="text;html=1;strokeColor=none;fillColor=none;align=center;verticalAlign=middle;whiteSpace=wrap;rounded=0;" vertex="1" parent="1"><mxGeometry x="150" y="70" width="210" height="30" as="geometry"/></mxCell></root></mxGraphModel></diagram></mxfile>